<svg width="560" height="209" viewBox="0 0 560 209" fill="none" xmlns="http://www.w3.org/2000/svg">
<g clip-path="url(#clip0_464_61)">
<path d="M470.566 27.1995L491.438 192.801" stroke="white" stroke-miterlimit="10"/>
<path d="M545.645 70.6585L470.566 27.1995" stroke="white" stroke-miterlimit="10"/>
<path d="M491.438 192.801L545.645 70.6584" stroke="white" stroke-miterlimit="10"/>
<path d="M78.0823 65.1585H48.0506V139.093H30.0316V65.1585H0V48.929H78.0823V65.1585Z" fill="white"/>
<path d="M90.8456 136.448C86.521 133.863 83.0374 130.227 80.4246 125.478C77.8119 120.73 76.5205 115.26 76.5205 109.038C76.5205 102.817 77.8119 97.347 80.4246 92.5984C83.0374 87.8497 86.491 84.2131 90.8456 81.6284C95.1702 79.0738 99.8851 77.7814 104.96 77.7814C108.684 77.7814 112.138 78.5027 115.261 79.9454C118.385 81.388 121.087 83.4618 123.37 86.1967V78.9836H140.188V139.093H123.37V131.88C121.087 134.615 118.385 136.719 115.261 138.131C112.138 139.574 108.684 140.295 104.96 140.295C99.8851 140.295 95.1702 139.003 90.8456 136.448ZM116.823 123.765C119.195 122.352 121.087 120.369 122.469 117.814C123.85 115.26 124.571 112.314 124.571 109.038C124.571 105.762 123.88 102.847 122.469 100.262C121.057 97.6776 119.195 95.694 116.823 94.3115C114.45 92.8989 111.838 92.2077 108.955 92.2077C106.072 92.2077 103.459 92.8989 101.086 94.3115C98.7139 95.7241 96.8219 97.7077 95.4404 100.262C94.059 102.817 93.3382 105.762 93.3382 109.038C93.3382 112.314 94.029 115.23 95.4404 117.814C96.8519 120.399 98.7139 122.383 101.086 123.765C103.459 125.178 106.072 125.869 108.955 125.869C111.838 125.869 114.45 125.178 116.823 123.765Z" fill="white"/>
<path d="M205.537 81.6284C209.861 84.2131 213.345 87.8497 215.958 92.5984C218.57 97.347 219.862 102.817 219.862 109.038C219.862 115.26 218.57 120.73 215.958 125.478C213.345 130.227 209.891 133.863 205.537 136.448C201.212 139.033 196.497 140.295 191.422 140.295C187.668 140.295 184.244 139.574 181.121 138.131C177.998 136.689 175.295 134.615 173.012 131.88V169.148H156.195V78.9836H173.012V86.1967C175.265 83.4618 177.968 81.388 181.121 79.9454C184.244 78.5027 187.698 77.7814 191.422 77.7814C196.497 77.7814 201.182 79.0738 205.537 81.6284ZM179.559 94.3115C177.187 95.7241 175.295 97.7077 173.913 100.262C172.532 102.817 171.811 105.762 171.811 109.038C171.811 112.314 172.502 115.23 173.913 117.814C175.325 120.399 177.187 122.383 179.559 123.765C181.932 125.178 184.544 125.869 187.427 125.869C190.311 125.869 192.923 125.178 195.296 123.765C197.668 122.352 199.56 120.369 200.942 117.814C202.323 115.26 203.044 112.314 203.044 109.038C203.044 105.762 202.353 102.847 200.942 100.262C199.53 97.6776 197.668 95.694 195.296 94.3115C192.923 92.8989 190.311 92.2077 187.427 92.2077C184.544 92.2077 181.932 92.8989 179.559 94.3115Z" fill="white"/>
<path d="M259.954 48.929H279.775L314.611 139.093H295.391L288.094 119.257H251.065L243.767 139.093H225.147L259.984 48.929H259.954ZM282.868 104.831L269.564 68.5546L256.26 104.831H282.898H282.868Z" fill="white"/>
<path d="M375.425 81.6284C379.75 84.2131 383.234 87.8497 385.846 92.5984C388.459 97.347 389.751 102.817 389.751 109.038C389.751 115.26 388.459 120.73 385.846 125.478C383.234 130.227 379.78 133.863 375.425 136.448C371.071 139.033 366.386 140.295 361.311 140.295C357.557 140.295 354.133 139.574 351.01 138.131C347.886 136.689 345.154 134.615 342.901 131.88V169.148H326.083V78.9836H342.901V86.1967C345.154 83.4618 347.886 81.388 351.01 79.9454C354.133 78.5027 357.587 77.7814 361.311 77.7814C366.386 77.7814 371.071 79.0738 375.425 81.6284ZM349.448 94.3115C347.076 95.7241 345.184 97.7077 343.802 100.262C342.421 102.817 341.7 105.762 341.7 109.038C341.7 112.314 342.391 115.23 343.802 117.814C345.214 120.399 347.076 122.383 349.448 123.765C351.821 125.178 354.433 125.869 357.316 125.869C360.199 125.869 362.812 125.178 365.185 123.765C367.557 122.352 369.449 120.369 370.831 117.814C372.212 115.26 372.933 112.314 372.933 109.038C372.933 105.762 372.242 102.847 370.831 100.262C369.419 97.6776 367.557 95.694 365.185 94.3115C362.812 92.8989 360.199 92.2077 357.316 92.2077C354.433 92.2077 351.821 92.8989 349.448 94.3115Z" fill="white"/>
<path d="M450.865 81.6284C455.19 84.2131 458.673 87.8497 461.286 92.5984C463.899 97.347 465.19 102.817 465.19 109.038C465.19 115.26 463.899 120.73 461.286 125.478C458.673 130.227 455.22 133.863 450.865 136.448C446.51 139.033 441.825 140.295 436.75 140.295C433.026 140.295 429.573 139.574 426.449 138.131C423.296 136.689 420.593 134.615 418.341 131.88V169.148H401.523V78.9836H418.341V86.1967C420.593 83.4618 423.296 81.388 426.449 79.9454C429.573 78.5027 433.026 77.7814 436.75 77.7814C441.825 77.7814 446.54 79.0738 450.865 81.6284ZM424.888 94.3115C422.515 95.7241 420.623 97.7077 419.242 100.262C417.86 102.817 417.139 105.762 417.139 109.038C417.139 112.314 417.83 115.23 419.242 117.814C420.653 120.399 422.515 122.383 424.888 123.765C427.26 125.148 429.873 125.869 432.756 125.869C435.639 125.869 438.252 125.178 440.624 123.765C442.997 122.352 444.889 120.369 446.27 117.814C447.652 115.26 448.372 112.314 448.372 109.038C448.372 105.762 447.682 102.847 446.27 100.262C444.859 97.6776 442.967 95.694 440.624 94.3115C438.282 92.929 435.639 92.2077 432.756 92.2077C429.873 92.2077 427.26 92.8989 424.888 94.3115Z" fill="white"/>
<path d="M464.199 -5.36092e-06C479.215 -0.03006 491.408 12.112 491.438 27.1393C491.468 42.1667 479.335 54.3689 464.319 54.3989C449.303 54.429 437.11 42.2869 437.08 27.2596C437.05 12.2322 449.183 0.0300493 464.199 -5.36092e-06Z" fill="white"/>
<path d="M491.408 164.399C501.048 164.399 508.886 172.183 508.916 181.861C508.946 191.538 501.138 199.352 491.498 199.383C481.858 199.383 474.019 191.598 473.989 181.921C473.959 172.243 481.768 164.399 491.438 164.399" fill="white"/>
<path d="M545.585 56.2623C553.513 56.2623 559.97 62.6639 560 70.5983C560.03 78.5328 553.603 84.9945 545.675 85.0246C537.746 85.0246 531.29 78.6229 531.26 70.6885C531.23 62.7541 537.656 56.2923 545.585 56.2623Z" fill="white"/>
<path d="M116.973 202.568C117.544 203.56 118.295 204.312 119.196 204.792C120.097 205.273 121.148 205.514 122.319 205.514C123.04 205.514 123.73 205.393 124.361 205.183C124.992 204.973 125.562 204.642 126.043 204.251C126.523 203.861 126.884 203.38 127.154 202.809C127.424 202.238 127.574 201.607 127.574 200.915C127.574 200.104 127.394 199.413 127.064 198.902C126.734 198.361 126.253 197.94 125.682 197.609C125.112 197.279 124.451 196.978 123.76 196.738C123.04 196.497 122.319 196.257 121.538 196.016C120.787 195.776 120.037 195.505 119.316 195.175C118.595 194.874 117.964 194.454 117.394 193.973C116.823 193.462 116.373 192.861 116.012 192.109C115.652 191.358 115.502 190.426 115.502 189.344C115.502 188.322 115.712 187.391 116.102 186.579C116.493 185.768 117.063 185.107 117.754 184.566C118.445 184.025 119.256 183.604 120.157 183.333C121.058 183.063 122.019 182.913 123.01 182.913C124.301 182.913 125.472 183.153 126.553 183.604C127.635 184.055 128.596 184.806 129.376 185.858L127.484 187.21C126.944 186.429 126.283 185.858 125.562 185.467C124.812 185.077 123.941 184.896 122.95 184.896C122.259 184.896 121.568 184.986 120.937 185.167C120.307 185.347 119.736 185.618 119.256 186.008C118.775 186.369 118.415 186.82 118.115 187.391C117.814 187.932 117.694 188.593 117.694 189.344C117.694 190.516 117.994 191.418 118.595 192.049C119.196 192.68 119.946 193.161 120.817 193.522C121.718 193.883 122.679 194.213 123.73 194.484C124.782 194.754 125.743 195.115 126.643 195.596C127.544 196.046 128.265 196.708 128.866 197.519C129.466 198.361 129.767 199.503 129.767 200.945C129.767 201.997 129.557 202.929 129.166 203.771C128.776 204.612 128.235 205.273 127.574 205.844C126.914 206.415 126.133 206.836 125.232 207.107C124.361 207.407 123.43 207.527 122.499 207.527C120.968 207.527 119.526 207.257 118.235 206.716C116.943 206.175 115.832 205.273 114.901 203.981L116.973 202.598V202.568Z" fill="white" stroke="white" stroke-miterlimit="10"/>
<path d="M137.935 183.484H141.209L149.738 203.109L158.267 183.484H161.36V206.896H159.168V186.279H159.108L150.188 206.896H149.227L140.188 186.279H140.128V206.896H137.935V183.484Z" fill="white" stroke="white" stroke-miterlimit="10"/>
<path d="M178.118 183.484H180.37L190.22 206.896H187.788L185.235 200.675H172.862L170.219 206.896H167.937L178.148 183.484H178.118ZM179.139 185.858L173.703 198.691H184.454L179.169 185.858H179.139Z" fill="white" stroke="white" stroke-miterlimit="10"/>
<path d="M197.038 183.484H203.194C203.494 183.484 203.915 183.484 204.455 183.514C204.996 183.514 205.567 183.604 206.167 183.724C206.798 183.844 207.399 184.025 208.059 184.265C208.69 184.505 209.26 184.866 209.771 185.317C210.282 185.768 210.702 186.369 211.032 187.06C211.363 187.751 211.513 188.623 211.513 189.645C211.513 190.757 211.333 191.688 210.942 192.41C210.552 193.131 210.071 193.732 209.501 194.183C208.93 194.634 208.269 194.964 207.579 195.205C206.888 195.445 206.197 195.566 205.567 195.656L212.384 206.896H209.891L203.314 195.776H199.26V206.896H197.068V183.484H197.038ZM199.23 193.792H203.855C204.996 193.792 205.927 193.642 206.648 193.372C207.368 193.101 207.909 192.74 208.33 192.32C208.72 191.899 208.99 191.448 209.14 190.967C209.291 190.486 209.351 190.035 209.351 189.645C209.351 189.254 209.291 188.803 209.14 188.322C208.99 187.842 208.72 187.391 208.33 186.97C207.939 186.549 207.368 186.189 206.648 185.918C205.927 185.648 204.996 185.497 203.855 185.497H199.23V193.822V193.792Z" fill="white" stroke="white" stroke-miterlimit="10"/>
<path d="M225.448 185.467H217.459V183.484H235.628V185.467H227.64V206.896H225.448V185.467Z" fill="white" stroke="white" stroke-miterlimit="10"/>
<path d="M255.299 202.568C255.87 203.56 256.62 204.312 257.521 204.792C258.422 205.273 259.473 205.514 260.645 205.514C261.365 205.514 262.056 205.393 262.687 205.183C263.317 204.973 263.888 204.642 264.369 204.251C264.849 203.861 265.209 203.38 265.48 202.809C265.75 202.238 265.9 201.607 265.9 200.915C265.9 200.104 265.72 199.413 265.39 198.902C265.059 198.361 264.579 197.94 264.008 197.609C263.438 197.279 262.777 196.978 262.086 196.738C261.365 196.497 260.645 196.257 259.864 196.016C259.113 195.776 258.362 195.505 257.641 195.175C256.921 194.874 256.29 194.454 255.719 193.973C255.149 193.462 254.698 192.861 254.338 192.109C253.978 191.358 253.827 190.426 253.827 189.344C253.827 188.322 254.038 187.391 254.428 186.579C254.818 185.768 255.389 185.107 256.08 184.566C256.771 184.025 257.581 183.604 258.482 183.333C259.383 183.063 260.344 182.913 261.335 182.913C262.627 182.913 263.798 183.153 264.879 183.604C265.96 184.055 266.921 184.806 267.702 185.858L265.81 187.21C265.27 186.429 264.609 185.858 263.888 185.467C263.137 185.077 262.266 184.896 261.275 184.896C260.585 184.896 259.894 184.986 259.263 185.167C258.633 185.347 258.062 185.618 257.581 186.008C257.101 186.369 256.741 186.82 256.44 187.391C256.14 187.932 256.02 188.593 256.02 189.344C256.02 190.516 256.32 191.418 256.921 192.049C257.521 192.68 258.272 193.161 259.143 193.522C260.044 193.883 261.005 194.213 262.056 194.484C263.107 194.754 264.068 195.115 264.969 195.596C265.87 196.046 266.591 196.708 267.192 197.519C267.792 198.361 268.092 199.503 268.092 200.945C268.092 201.997 267.882 202.929 267.492 203.771C267.101 204.612 266.561 205.273 265.9 205.844C265.239 206.415 264.459 206.836 263.558 207.107C262.687 207.407 261.756 207.527 260.825 207.527C259.293 207.527 257.852 207.257 256.56 206.716C255.269 206.175 254.158 205.273 253.227 203.981L255.299 202.598V202.568Z" fill="white" stroke="white" stroke-miterlimit="10"/>
<path d="M274.97 195.175C274.97 193.402 275.27 191.749 275.871 190.246C276.471 188.743 277.282 187.451 278.363 186.369C279.414 185.287 280.706 184.415 282.177 183.814C283.649 183.213 285.301 182.883 287.072 182.883C288.844 182.883 290.496 183.183 291.968 183.814C293.439 184.445 294.731 185.287 295.782 186.369C296.833 187.451 297.674 188.743 298.244 190.246C298.845 191.749 299.145 193.372 299.145 195.175C299.145 196.978 298.845 198.601 298.244 200.104C297.644 201.607 296.833 202.899 295.782 204.011C294.731 205.093 293.439 205.964 291.968 206.566C290.466 207.167 288.844 207.467 287.072 207.467C285.301 207.467 283.649 207.167 282.177 206.566C280.706 205.964 279.414 205.123 278.363 204.011C277.312 202.929 276.471 201.607 275.871 200.104C275.27 198.601 274.97 196.948 274.97 195.175ZM277.162 195.175C277.162 196.617 277.402 197.97 277.853 199.232C278.303 200.495 278.964 201.576 279.835 202.508C280.706 203.44 281.727 204.161 282.958 204.702C284.189 205.243 285.541 205.484 287.072 205.484C288.604 205.484 289.956 205.213 291.187 204.702C292.418 204.161 293.439 203.44 294.31 202.508C295.181 201.576 295.842 200.495 296.292 199.232C296.743 197.97 296.983 196.617 296.983 195.175C296.983 193.732 296.743 192.35 296.292 191.117C295.842 189.855 295.181 188.773 294.31 187.842C293.439 186.91 292.418 186.189 291.187 185.648C289.956 185.107 288.604 184.866 287.072 184.866C285.541 184.866 284.189 185.137 282.958 185.648C281.727 186.189 280.706 186.91 279.835 187.842C278.964 188.773 278.303 189.855 277.853 191.117C277.402 192.38 277.162 193.732 277.162 195.175Z" fill="white" stroke="white" stroke-miterlimit="10"/>
<path d="M307.464 183.484H309.656V204.913H320.558V206.896H307.464V183.484Z" fill="white" stroke="white" stroke-miterlimit="10"/>
<path d="M344.043 197.94C344.043 199.202 343.892 200.404 343.622 201.546C343.352 202.688 342.871 203.71 342.181 204.582C341.52 205.454 340.619 206.175 339.538 206.686C338.457 207.227 337.105 207.467 335.514 207.467C333.922 207.467 332.601 207.197 331.489 206.686C330.408 206.145 329.507 205.454 328.847 204.582C328.186 203.71 327.705 202.688 327.405 201.546C327.105 200.404 326.985 199.202 326.985 197.94V183.484H329.177V197.369C329.177 198.21 329.267 199.112 329.417 200.044C329.567 201.005 329.868 201.877 330.318 202.689C330.769 203.5 331.399 204.191 332.24 204.702C333.051 205.243 334.162 205.484 335.514 205.484C336.865 205.484 337.976 205.213 338.787 204.702C339.628 204.161 340.259 203.5 340.709 202.689C341.16 201.877 341.46 201.005 341.61 200.044C341.76 199.112 341.85 198.21 341.85 197.369V183.484H344.043V197.94Z" fill="white" stroke="white" stroke-miterlimit="10"/>
<path d="M358.638 185.467H350.649V183.484H368.819V185.467H360.83V206.896H358.638V185.467Z" fill="white" stroke="white" stroke-miterlimit="10"/>
<path d="M375.846 183.484H378.038V206.896H375.846V183.484Z" fill="white" stroke="white" stroke-miterlimit="10"/>
<path d="M386.357 195.175C386.357 193.402 386.658 191.749 387.258 190.246C387.859 188.743 388.67 187.451 389.751 186.369C390.802 185.287 392.093 184.415 393.565 183.814C395.036 183.213 396.688 182.883 398.46 182.883C400.232 182.883 401.884 183.183 403.355 183.814C404.827 184.445 406.118 185.287 407.169 186.369C408.22 187.451 409.061 188.743 409.662 190.246C410.262 191.749 410.563 193.372 410.563 195.175C410.563 196.978 410.262 198.601 409.662 200.104C409.061 201.607 408.25 202.899 407.169 204.011C406.118 205.093 404.827 205.964 403.355 206.566C401.884 207.167 400.232 207.467 398.46 207.467C396.688 207.467 395.036 207.167 393.565 206.566C392.093 205.964 390.802 205.123 389.751 204.011C388.7 202.929 387.859 201.607 387.258 200.104C386.658 198.601 386.357 196.948 386.357 195.175ZM388.55 195.175C388.55 196.617 388.79 197.97 389.24 199.232C389.691 200.495 390.351 201.576 391.222 202.508C392.093 203.44 393.114 204.161 394.346 204.702C395.577 205.243 396.928 205.484 398.46 205.484C399.992 205.484 401.343 205.213 402.574 204.702C403.806 204.161 404.827 203.44 405.698 202.508C406.568 201.576 407.229 200.495 407.68 199.232C408.13 197.97 408.37 196.617 408.37 195.175C408.37 193.732 408.13 192.35 407.68 191.117C407.229 189.855 406.568 188.773 405.698 187.842C404.827 186.91 403.806 186.189 402.574 185.648C401.343 185.107 399.992 184.866 398.46 184.866C396.928 184.866 395.577 185.137 394.346 185.648C393.114 186.189 392.093 186.91 391.222 187.842C390.351 188.773 389.691 189.855 389.24 191.117C388.79 192.38 388.55 193.732 388.55 195.175Z" fill="white" stroke="white" stroke-miterlimit="10"/>
<path d="M418.851 183.484H421.644L435.879 203.981H435.939V183.484H438.132V206.896H435.309L421.074 186.399H421.014V206.896H418.821V183.484H418.851Z" fill="white" stroke="white" stroke-miterlimit="10"/>
<path d="M448.613 202.568C449.183 203.56 449.934 204.312 450.835 204.792C451.736 205.273 452.787 205.514 453.958 205.514C454.679 205.514 455.37 205.393 456.001 205.183C456.631 204.973 457.202 204.642 457.682 204.251C458.163 203.861 458.523 203.38 458.793 202.809C459.064 202.238 459.214 201.607 459.214 200.915C459.214 200.104 459.034 199.413 458.703 198.902C458.373 198.361 457.893 197.94 457.322 197.609C456.751 197.279 456.091 196.978 455.4 196.738C454.679 196.497 453.958 196.257 453.178 196.016C452.397 195.776 451.676 195.505 450.955 195.175C450.234 194.874 449.604 194.454 449.033 193.973C448.463 193.492 448.012 192.861 447.652 192.109C447.321 191.358 447.141 190.426 447.141 189.344C447.141 188.322 447.351 187.391 447.742 186.579C448.132 185.768 448.703 185.107 449.394 184.566C450.084 184.025 450.895 183.604 451.796 183.333C452.697 183.063 453.658 182.913 454.649 182.913C455.91 182.913 457.112 183.153 458.193 183.604C459.274 184.055 460.235 184.806 461.016 185.858L459.124 187.21C458.583 186.429 457.923 185.858 457.202 185.467C456.451 185.077 455.58 184.896 454.559 184.896C453.868 184.896 453.178 184.986 452.547 185.167C451.916 185.347 451.346 185.618 450.865 186.008C450.385 186.369 450.024 186.82 449.724 187.391C449.424 187.932 449.303 188.593 449.303 189.344C449.303 190.516 449.604 191.418 450.204 192.049C450.805 192.68 451.556 193.161 452.427 193.522C453.328 193.883 454.289 194.213 455.34 194.484C456.391 194.754 457.352 195.115 458.253 195.596C459.154 196.046 459.875 196.708 460.475 197.519C461.076 198.361 461.376 199.503 461.376 200.945C461.376 201.997 461.166 202.929 460.776 203.771C460.385 204.612 459.845 205.273 459.184 205.844C458.523 206.415 457.742 206.836 456.841 207.107C455.97 207.407 455.04 207.527 454.109 207.527C452.577 207.527 451.135 207.257 449.844 206.716C448.553 206.175 447.441 205.273 446.51 203.981L448.583 202.598L448.613 202.568Z" fill="white" stroke="white" stroke-miterlimit="10"/>
</g>
<defs>
<clipPath id="clip0_464_61">
<rect width="560" height="209" fill="white"/>
</clipPath>
</defs>
</svg>
